<svg width="0" height="0" class="hidden">
   <defs>

      <symbol xmlns="http://www.w3.org/2000/svg" viewBox="0 0 30 17" id="menu">
         <rect x="5" width="20" height="3" rx="1.5" fill="currentColor"></rect>
         <rect x="5" y="14" width="20" height="3" rx="1.5" fill="currentColor"></rect>
         <rect y="7" width="30" height="3" rx="1.5" fill="currentColor"></rect>
      </symbol>

      <symbol fill="none" xmlns="http://www.w3.org/2000/svg" viewBox="0 0 20 20"
         id="search">
         <path
            d="M9.0625 15.625C12.6869 15.625 15.625 12.6869 15.625 9.0625C15.625 5.43813 12.6869 2.5 9.0625 2.5C5.43813 2.5 2.5 5.43813 2.5 9.0625C2.5 12.6869 5.43813 15.625 9.0625 15.625Z"
            stroke="currentColor" stroke-width="1.5" stroke-linecap="round"
            stroke-linejoin="round"></path>
         <path d="M13.7031 13.7031L17.5 17.5" stroke="currentColor" stroke-width="1.5"
            stroke-linecap="round" stroke-linejoin="round"></path>
      </symbol>

      <symbol xmlns="http://www.w3.org/2000/svg" viewBox="0 0 384 512" id="close">
         <path
            d="M342.6 150.6c12.5-12.5 12.5-32.8 0-45.3s-32.8-12.5-45.3 0L192 210.7 86.6 105.4c-12.5-12.5-32.8-12.5-45.3 0s-12.5 32.8 0 45.3L146.7 256 41.4 361.4c-12.5 12.5-12.5 32.8 0 45.3s32.8 12.5 45.3 0L192 301.3 297.4 406.6c12.5 12.5 32.8 12.5 45.3 0s12.5-32.8 0-45.3L237.3 256 342.6 150.6z"></path>
      </symbol>

   </defs>
</svg>