<svg width="0" height="0" class="hidden">
   <defs>
      <symbol xmlns="http://www.w3.org/2000/svg" viewBox="0 0 30 17" id="menu">
         <rect x="5" width="20" height="3" rx="1.5" fill="currentColor"></rect>
         <rect x="5" y="14" width="20" height="3" rx="1.5" fill="currentColor"></rect>
         <rect y="7" width="30" height="3" rx="1.5" fill="currentColor"></rect>
      </symbol>

      <symbol fill="none" xmlns="http://www.w3.org/2000/svg" viewBox="0 0 20 20"
         id="search">
         <path
            d="M9.0625 15.625C12.6869 15.625 15.625 12.6869 15.625 9.0625C15.625 5.43813 12.6869 2.5 9.0625 2.5C5.43813 2.5 2.5 5.43813 2.5 9.0625C2.5 12.6869 5.43813 15.625 9.0625 15.625Z"
            stroke="currentColor" stroke-width="1.5" stroke-linecap="round"
            stroke-linejoin="round"></path>
         <path d="M13.7031 13.7031L17.5 17.5" stroke="currentColor" stroke-width="1.5"
            stroke-linecap="round" stroke-linejoin="round"></path>
      </symbol>

      <symbol xmlns="http://www.w3.org/2000/svg" viewBox="0 0 384 512" id="close">
         <path
            d="M342.6 150.6c12.5-12.5 12.5-32.8 0-45.3s-32.8-12.5-45.3 0L192 210.7 86.6 105.4c-12.5-12.5-32.8-12.5-45.3 0s-12.5 32.8 0 45.3L146.7 256 41.4 361.4c-12.5 12.5-12.5 32.8 0 45.3s32.8 12.5 45.3 0L192 301.3 297.4 406.6c12.5 12.5 32.8 12.5 45.3 0s12.5-32.8 0-45.3L237.3 256 342.6 150.6z"></path>
      </symbol>

      <symbol xmlns="http://www.w3.org/2000/svg" viewBox="0 0 512 512" id="facebook">
         <path
            d="M512 256C512 114.6 397.4 0 256 0S0 114.6 0 256C0 376 82.7 476.8 194.2 504.5V334.2H141.4V256h52.8V222.3c0-87.1 39.4-127.5 125-127.5c16.2 0 44.2 3.2 55.7 6.4V172c-6-.6-16.5-1-29.6-1c-42 0-58.2 15.9-58.2 57.2V256h83.6l-14.4 78.2H287V510.1C413.8 494.8 512 386.9 512 256h0z"></path>
      </symbol>


      <symbol xmlns="http://www.w3.org/2000/svg" viewBox="0 0 24 24" id="twitter">
         <path d="M16.8222 6.74756C16.8222 6.74756 11.3609 12.7788 7.32018 17.2416"
            stroke="currentColor" opacity='0.4' stroke-width="1.125" stroke-linecap="round"></path>
         <path
            d="M6.92265 7.40568L13.5449 17.3938L13.5449 17.3938C13.7416 17.6904 13.84 17.8388 13.9901 17.9191C14.1403 17.9994 14.3183 17.9988 14.6743 17.9977L16.6126 17.9917C17.2241 17.9898 17.5299 17.9889 17.6356 17.7919C17.7413 17.5949 17.573 17.3396 17.2365 16.829L10.5012 6.6096C10.3046 6.31131 10.2063 6.16217 10.0558 6.08142C9.90524 6.00068 9.72661 6.00129 9.36937 6.00252L7.66967 6.00835C6.93402 6.01088 6.56619 6.01214 6.43953 6.24906C6.31287 6.48597 6.51613 6.79254 6.92265 7.40568Z"
         ></path>
      </symbol>

      <symbol xmlns="http://www.w3.org/2000/svg" viewBox="0 0 448 512"
         id="instagram">
         <path
            d="M224.1 141c-63.6 0-114.9 51.3-114.9 114.9s51.3 114.9 114.9 114.9S339 319.5 339 255.9 287.7 141 224.1 141zm0 189.6c-41.1 0-74.7-33.5-74.7-74.7s33.5-74.7 74.7-74.7 74.7 33.5 74.7 74.7-33.6 74.7-74.7 74.7zm146.4-194.3c0 14.9-12 26.8-26.8 26.8-14.9 0-26.8-12-26.8-26.8s12-26.8 26.8-26.8 26.8 12 26.8 26.8zm76.1 27.2c-1.7-35.9-9.9-67.7-36.2-93.9-26.2-26.2-58-34.4-93.9-36.2-37-2.1-147.9-2.1-184.9 0-35.8 1.7-67.6 9.9-93.9 36.1s-34.4 58-36.2 93.9c-2.1 37-2.1 147.9 0 184.9 1.7 35.9 9.9 67.7 36.2 93.9s58 34.4 93.9 36.2c37 2.1 147.9 2.1 184.9 0 35.9-1.7 67.7-9.9 93.9-36.2 26.2-26.2 34.4-58 36.2-93.9 2.1-37 2.1-147.8 0-184.8zM398.8 388c-7.8 19.6-22.9 34.7-42.6 42.6-29.5 11.7-99.5 9-132.1 9s-102.7 2.6-132.1-9c-19.6-7.8-34.7-22.9-42.6-42.6-11.7-29.5-9-99.5-9-132.1s-2.6-102.7 9-132.1c7.8-19.6 22.9-34.7 42.6-42.6 29.5-11.7 99.5-9 132.1-9s102.7-2.6 132.1 9c19.6 7.8 34.7 22.9 42.6 42.6 11.7 29.5 9 99.5 9 132.1s2.7 102.7-9 132.1z"></path>
      </symbol>


      <symbol xmlns="http://www.w3.org/2000/svg" viewBox="0 0 24 24" id="tiktok">
         <path
            d="M14.3351 6.34954C14.3351 6.0938 14.2335 5.84853 14.0526 5.66769C13.8718 5.48685 13.6265 5.38525 13.3708 5.38525C13.115 5.38525 12.8698 5.48685 12.6889 5.66769C12.5081 5.84853 12.4065 6.0938 12.4065 6.34954V14.6231C12.4067 14.9842 12.2998 15.3372 12.0993 15.6375C11.8989 15.9378 11.6139 16.1719 11.2803 16.3102C10.9468 16.4485 10.5797 16.4848 10.2256 16.4145C9.87143 16.3442 9.54609 16.1704 9.29071 15.9152C9.03533 15.6599 8.86138 15.3347 8.79087 14.9805C8.72036 14.6264 8.75645 14.2594 8.89458 13.9258C9.03271 13.5921 9.26667 13.307 9.56688 13.1064C9.86709 12.9058 10.22 12.7987 10.5811 12.7987C10.8369 12.7987 11.0821 12.6971 11.263 12.5163C11.4438 12.3354 11.5454 12.0901 11.5454 11.8344C11.5454 11.5787 11.4438 11.3334 11.263 11.1525C11.0821 10.9717 10.8369 10.8701 10.5811 10.8701C9.83865 10.8701 9.11286 11.0903 8.49552 11.5028C7.87819 11.9153 7.39703 12.5015 7.1129 13.1875C6.82877 13.8734 6.75443 14.6282 6.89928 15.3564C7.04413 16.0846 7.40166 16.7535 7.92666 17.2785C8.45166 17.8035 9.12055 18.1611 9.84875 18.3059C10.577 18.4508 11.3317 18.3764 12.0177 18.0923C12.7036 17.8082 13.2899 17.327 13.7024 16.7097C14.1149 16.0923 14.3351 15.3665 14.3351 14.6241V10.3446C15.2361 11.0618 16.3541 11.4515 17.5057 11.4496C17.7614 11.4496 18.0067 11.3481 18.1875 11.1672C18.3683 10.9864 18.4699 10.7411 18.4699 10.4854C18.4699 10.2296 18.3683 9.98435 18.1875 9.80351C18.0067 9.62267 17.7614 9.52108 17.5057 9.52108C16.6648 9.52108 15.8583 9.18703 15.2637 8.59244C14.6691 7.99784 14.3351 7.19139 14.3351 6.3505V6.34954Z"
         ></path>
      </symbol>

      <symbol xmlns="http://www.w3.org/2000/svg" viewBox="0 0 448 512" id="linkedin">
         <path
            d="M416 32H31.9C14.3 32 0 46.5 0 64.3v383.4C0 465.5 14.3 480 31.9 480H416c17.6 0 32-14.5 32-32.3V64.3c0-17.8-14.4-32.3-32-32.3zM135.4 416H69V202.2h66.5V416zm-33.2-243c-21.3 0-38.5-17.3-38.5-38.5S80.9 96 102.2 96c21.2 0 38.5 17.3 38.5 38.5 0 21.3-17.2 38.5-38.5 38.5zm282.1 243h-66.4V312c0-24.8-.5-56.7-34.5-56.7-34.6 0-39.9 27-39.9 54.9V416h-66.4V202.2h63.7v29.2h.9c8.9-16.8 30.6-34.5 62.9-34.5 67.2 0 79.7 44.3 79.7 101.9V416z"></path>
      </symbol>

      <symbol fill="none" xmlns="http://www.w3.org/2000/svg" viewBox="0 0 24 24" id="arrow-right">
         <path d="M3.75 12H20.25" stroke="currentColor" stroke-width="1.5" stroke-linecap="round"
            stroke-linejoin="round"></path>
         <path d="M13.5 5.25L20.25 12L13.5 18.75" stroke="currentColor" stroke-width="1.5"
            stroke-linecap="round" stroke-linejoin="round"></path>
      </symbol>

      <symbol xmlns="http://www.w3.org/2000/svg" fill="none" stroke="currentColor"
         stroke-width="2" stroke-linecap="round" stroke-linejoin="round" viewBox="0 0 24 24"
         id="moon">
         <path d="M12 3a6 6 0 0 0 9 9 9 9 0 1 1-9-9Z"></path>
      </symbol>

      <symbol xmlns="http://www.w3.org/2000/svg" fill="none" stroke="currentColor"
         stroke-width="2" stroke-linecap="round" stroke-linejoin="round" viewBox="0 0 24 24"
         id="sun">
         <circle cx="12" cy="12" r="4"></circle>
         <path d="M12 2v2"></path>
         <path d="M12 20v2"></path>
         <path d="m4.93 4.93 1.41 1.41"></path>
         <path d="m17.66 17.66 1.41 1.41"></path>
         <path d="M2 12h2"></path>
         <path d="M20 12h2"></path>
         <path d="m6.34 17.66-1.41 1.41"></path>
         <path d="m19.07 4.93-1.41 1.41"></path>
      </symbol>

      <symbol xmlns="http://www.w3.org/2000/svg" viewBox="0 0 320 512" id="chevron-right">
         <path
            d="M310.6 233.4c12.5 12.5 12.5 32.8 0 45.3l-192 192c-12.5 12.5-32.8 12.5-45.3 0s-12.5-32.8 0-45.3L242.7 256 73.4 86.6c-12.5-12.5-12.5-32.8 0-45.3s32.8-12.5 45.3 0l192 192z"></path>
      </symbol>

   </defs>
</svg>